<mxfile host="app.diagrams.net" modified="2023-05-16T08:13:03.977Z" agent="Mozilla/5.0 (Windows NT 10.0; Win64; x64) AppleWebKit/537.36 (KHTML, like Gecko) Chrome/113.0.0.0 Safari/537.36" etag="KMqB0mrZ1_7kgEjcoCR4" version="21.3.2" type="github">
  <diagram name="ИСУРЗ - Первичная загрузка нового алгоритма сессий" id="74e2e168-ea6b-b213-b513-2b3c1d86103e">
    <mxGraphModel dx="698" dy="390" grid="1" gridSize="10" guides="1" tooltips="1" connect="1" arrows="1" fold="1" page="1" pageScale="1" pageWidth="1100" pageHeight="850" background="none" math="0" shadow="0">
      <root>
        <mxCell id="0" />
        <mxCell id="1" parent="0" />
        <mxCell id="77e6c97f196da883-1" value="&lt;font style=&quot;font-size: 12px;&quot;&gt;ИСУРЗ -&amp;nbsp;Первичная загрузка нового алгоритма сессий&lt;/font&gt;" style="swimlane;html=1;childLayout=stackLayout;startSize=20;rounded=0;shadow=0;labelBackgroundColor=none;strokeWidth=1;fontFamily=Verdana;fontSize=8;align=center;" parent="1" vertex="1">
          <mxGeometry x="40" y="40" width="640" height="1540" as="geometry">
            <mxRectangle x="40" y="40" width="420" height="30" as="alternateBounds" />
          </mxGeometry>
        </mxCell>
        <mxCell id="77e6c97f196da883-2" value="&lt;font style=&quot;font-size: 10px;&quot;&gt;NiFi Кластер&lt;/font&gt;" style="swimlane;html=1;startSize=20;" parent="77e6c97f196da883-1" vertex="1">
          <mxGeometry y="20" width="160" height="1520" as="geometry" />
        </mxCell>
        <mxCell id="4x68nEd3uDqoanb-VtR9-1" value="Логирование запуска" style="rounded=1;whiteSpace=wrap;html=1;shadow=0;labelBackgroundColor=none;strokeWidth=1;fontFamily=Verdana;fontSize=8;align=center;" vertex="1" parent="77e6c97f196da883-2">
          <mxGeometry x="20" y="110" width="100" height="60" as="geometry" />
        </mxCell>
        <mxCell id="77e6c97f196da883-26" style="edgeStyle=orthogonalEdgeStyle;rounded=1;html=1;labelBackgroundColor=none;startArrow=none;startFill=0;startSize=5;endArrow=classicThin;endFill=1;endSize=5;jettySize=auto;orthogonalLoop=1;strokeWidth=1;fontFamily=Verdana;fontSize=8;entryX=0.5;entryY=0;entryDx=0;entryDy=0;" parent="77e6c97f196da883-2" target="4x68nEd3uDqoanb-VtR9-1" edge="1">
          <mxGeometry relative="1" as="geometry">
            <mxPoint x="70" y="90" as="sourcePoint" />
          </mxGeometry>
        </mxCell>
        <mxCell id="4x68nEd3uDqoanb-VtR9-3" value="Вычисление интервала" style="rounded=1;whiteSpace=wrap;html=1;shadow=0;labelBackgroundColor=none;strokeWidth=1;fontFamily=Verdana;fontSize=8;align=center;" vertex="1" parent="77e6c97f196da883-2">
          <mxGeometry x="20" y="190" width="100" height="60" as="geometry" />
        </mxCell>
        <mxCell id="4x68nEd3uDqoanb-VtR9-7" value="Вычисление регионов и периодов" style="rounded=1;whiteSpace=wrap;html=1;shadow=0;labelBackgroundColor=none;strokeWidth=1;fontFamily=Verdana;fontSize=8;align=center;" vertex="1" parent="77e6c97f196da883-2">
          <mxGeometry x="20" y="270" width="100" height="60" as="geometry" />
        </mxCell>
        <mxCell id="4x68nEd3uDqoanb-VtR9-15" value="" style="edgeStyle=orthogonalEdgeStyle;rounded=0;orthogonalLoop=1;jettySize=auto;html=1;" edge="1" parent="77e6c97f196da883-2" source="4x68nEd3uDqoanb-VtR9-13" target="4x68nEd3uDqoanb-VtR9-12">
          <mxGeometry relative="1" as="geometry" />
        </mxCell>
        <mxCell id="4x68nEd3uDqoanb-VtR9-13" value="Сессии" style="strokeWidth=2;html=1;shape=mxgraph.flowchart.extract_or_measurement;whiteSpace=wrap;" vertex="1" parent="77e6c97f196da883-2">
          <mxGeometry x="20" y="350" width="100" height="60" as="geometry" />
        </mxCell>
        <mxCell id="4x68nEd3uDqoanb-VtR9-12" value="Логирование сессий" style="rounded=1;whiteSpace=wrap;html=1;shadow=0;labelBackgroundColor=none;strokeWidth=1;fontFamily=Verdana;fontSize=8;align=center;" vertex="1" parent="77e6c97f196da883-2">
          <mxGeometry x="20" y="430" width="100" height="60" as="geometry" />
        </mxCell>
        <mxCell id="4x68nEd3uDqoanb-VtR9-20" value="Тип" style="rhombus;whiteSpace=wrap;html=1;" vertex="1" parent="77e6c97f196da883-2">
          <mxGeometry x="20" y="510" width="100" height="60" as="geometry" />
        </mxCell>
        <mxCell id="4x68nEd3uDqoanb-VtR9-37" value="" style="endArrow=none;html=1;rounded=0;strokeWidth=5;" edge="1" parent="77e6c97f196da883-2">
          <mxGeometry width="50" height="50" relative="1" as="geometry">
            <mxPoint x="20" y="780" as="sourcePoint" />
            <mxPoint x="120" y="780" as="targetPoint" />
            <Array as="points">
              <mxPoint x="50" y="780" />
              <mxPoint x="70" y="780" />
            </Array>
          </mxGeometry>
        </mxCell>
        <mxCell id="4x68nEd3uDqoanb-VtR9-52" value="Нет" style="edgeStyle=orthogonalEdgeStyle;rounded=0;orthogonalLoop=1;jettySize=auto;html=1;" edge="1" parent="77e6c97f196da883-2" source="4x68nEd3uDqoanb-VtR9-49">
          <mxGeometry relative="1" as="geometry">
            <mxPoint x="70" y="870" as="targetPoint" />
          </mxGeometry>
        </mxCell>
        <mxCell id="4x68nEd3uDqoanb-VtR9-65" value="Да" style="edgeStyle=orthogonalEdgeStyle;rounded=0;orthogonalLoop=1;jettySize=auto;html=1;exitX=0;exitY=0.5;exitDx=0;exitDy=0;" edge="1" parent="77e6c97f196da883-2" source="4x68nEd3uDqoanb-VtR9-49" target="4x68nEd3uDqoanb-VtR9-64">
          <mxGeometry relative="1" as="geometry">
            <Array as="points">
              <mxPoint x="10" y="820" />
              <mxPoint x="10" y="1100" />
              <mxPoint x="70" y="1100" />
            </Array>
          </mxGeometry>
        </mxCell>
        <mxCell id="4x68nEd3uDqoanb-VtR9-49" value="Записи&lt;br&gt;присутствуют" style="rhombus;whiteSpace=wrap;html=1;" vertex="1" parent="77e6c97f196da883-2">
          <mxGeometry x="20" y="790" width="100" height="60" as="geometry" />
        </mxCell>
        <mxCell id="4x68nEd3uDqoanb-VtR9-53" value="Закрытие сессий" style="rounded=1;whiteSpace=wrap;html=1;shadow=0;labelBackgroundColor=none;strokeWidth=1;fontFamily=Verdana;fontSize=8;align=center;" vertex="1" parent="77e6c97f196da883-2">
          <mxGeometry x="20" y="870" width="100" height="60" as="geometry" />
        </mxCell>
        <mxCell id="4x68nEd3uDqoanb-VtR9-57" value="Старт по расписанию" style="strokeWidth=2;html=1;shape=mxgraph.flowchart.start_1;whiteSpace=wrap;" vertex="1" parent="77e6c97f196da883-2">
          <mxGeometry x="20" y="30" width="100" height="60" as="geometry" />
        </mxCell>
        <mxCell id="4x68nEd3uDqoanb-VtR9-58" value="Обновление&amp;nbsp;&lt;br&gt;интервалов" style="rounded=1;whiteSpace=wrap;html=1;shadow=0;labelBackgroundColor=none;strokeWidth=1;fontFamily=Verdana;fontSize=8;align=center;" vertex="1" parent="77e6c97f196da883-2">
          <mxGeometry x="20" y="950" width="100" height="60" as="geometry" />
        </mxCell>
        <mxCell id="4x68nEd3uDqoanb-VtR9-62" value="Завершение обработки" style="strokeWidth=2;html=1;shape=mxgraph.flowchart.terminator;whiteSpace=wrap;" vertex="1" parent="77e6c97f196da883-2">
          <mxGeometry x="20" y="1030" width="100" height="60" as="geometry" />
        </mxCell>
        <mxCell id="4x68nEd3uDqoanb-VtR9-64" value="Логирование записей" style="rounded=1;whiteSpace=wrap;html=1;shadow=0;labelBackgroundColor=none;strokeWidth=1;fontFamily=Verdana;fontSize=8;align=center;" vertex="1" parent="77e6c97f196da883-2">
          <mxGeometry x="20" y="1110" width="100" height="60" as="geometry" />
        </mxCell>
        <mxCell id="4x68nEd3uDqoanb-VtR9-86" value="" style="edgeStyle=orthogonalEdgeStyle;rounded=0;orthogonalLoop=1;jettySize=auto;html=1;" edge="1" parent="77e6c97f196da883-2" source="4x68nEd3uDqoanb-VtR9-75" target="4x68nEd3uDqoanb-VtR9-83">
          <mxGeometry relative="1" as="geometry" />
        </mxCell>
        <mxCell id="4x68nEd3uDqoanb-VtR9-75" value="Записи" style="strokeWidth=2;html=1;shape=mxgraph.flowchart.extract_or_measurement;whiteSpace=wrap;" vertex="1" parent="77e6c97f196da883-2">
          <mxGeometry x="20" y="1350" width="100" height="60" as="geometry" />
        </mxCell>
        <mxCell id="4x68nEd3uDqoanb-VtR9-83" value="К получению файлов РЗ" style="verticalLabelPosition=bottom;verticalAlign=top;html=1;shape=mxgraph.flowchart.on-page_reference;" vertex="1" parent="77e6c97f196da883-2">
          <mxGeometry x="40" y="1430" width="60" height="60" as="geometry" />
        </mxCell>
        <mxCell id="77e6c97f196da883-3" value="&lt;font style=&quot;font-size: 10px;&quot;&gt;Служебная БД&lt;/font&gt;" style="swimlane;html=1;startSize=20;" parent="77e6c97f196da883-1" vertex="1">
          <mxGeometry x="160" y="20" width="160" height="1520" as="geometry">
            <mxRectangle x="160" y="20" width="40" height="1600" as="alternateBounds" />
          </mxGeometry>
        </mxCell>
        <mxCell id="77e6c97f196da883-11" value="INSERT INTO aw_etl.load_run" style="rounded=1;whiteSpace=wrap;html=1;shadow=0;labelBackgroundColor=none;strokeWidth=1;fontFamily=Verdana;fontSize=8;align=center;" parent="77e6c97f196da883-3" vertex="1">
          <mxGeometry x="20" y="110" width="100" height="60" as="geometry" />
        </mxCell>
        <mxCell id="4x68nEd3uDqoanb-VtR9-5" value="SELECT * FROM aw_etl.control&lt;br&gt;&lt;br&gt;INSERT INTO aw_etl.load_interval" style="rounded=1;whiteSpace=wrap;html=1;shadow=0;labelBackgroundColor=none;strokeWidth=1;fontFamily=Verdana;fontSize=8;align=center;" vertex="1" parent="77e6c97f196da883-3">
          <mxGeometry x="20" y="190" width="100" height="60" as="geometry" />
        </mxCell>
        <mxCell id="4x68nEd3uDqoanb-VtR9-9" value="CROSS JOIN aw_etl.isurz_shard_keys" style="rounded=1;whiteSpace=wrap;html=1;shadow=0;labelBackgroundColor=none;strokeWidth=1;fontFamily=Verdana;fontSize=8;align=center;" vertex="1" parent="77e6c97f196da883-3">
          <mxGeometry x="20" y="270" width="100" height="60" as="geometry" />
        </mxCell>
        <mxCell id="4x68nEd3uDqoanb-VtR9-16" value="INSERT INTO aw_etl.load_session" style="rounded=1;whiteSpace=wrap;html=1;shadow=0;labelBackgroundColor=none;strokeWidth=1;fontFamily=Verdana;fontSize=8;align=center;" vertex="1" parent="77e6c97f196da883-3">
          <mxGeometry x="20" y="430" width="100" height="60" as="geometry" />
        </mxCell>
        <mxCell id="4x68nEd3uDqoanb-VtR9-54" value="UPDATE&lt;br&gt;aw_etl.load_session" style="rounded=1;whiteSpace=wrap;html=1;shadow=0;labelBackgroundColor=none;strokeWidth=1;fontFamily=Verdana;fontSize=8;align=center;" vertex="1" parent="77e6c97f196da883-3">
          <mxGeometry x="20" y="870" width="100" height="60" as="geometry" />
        </mxCell>
        <mxCell id="4x68nEd3uDqoanb-VtR9-59" value="UPDATE&lt;br&gt;aw_etl.load_interval" style="rounded=1;whiteSpace=wrap;html=1;shadow=0;labelBackgroundColor=none;strokeWidth=1;fontFamily=Verdana;fontSize=8;align=center;" vertex="1" parent="77e6c97f196da883-3">
          <mxGeometry x="20" y="950" width="100" height="60" as="geometry" />
        </mxCell>
        <mxCell id="77e6c97f196da883-4" value="&lt;font style=&quot;font-size: 10px;&quot;&gt;pmpp БД&lt;/font&gt;" style="swimlane;html=1;startSize=20;" parent="77e6c97f196da883-1" vertex="1">
          <mxGeometry x="320" y="20" width="160" height="1520" as="geometry">
            <mxRectangle x="200" y="20" width="40" height="1600" as="alternateBounds" />
          </mxGeometry>
        </mxCell>
        <mxCell id="4x68nEd3uDqoanb-VtR9-48" style="edgeStyle=orthogonalEdgeStyle;rounded=0;orthogonalLoop=1;jettySize=auto;html=1;" edge="1" parent="77e6c97f196da883-4" source="4x68nEd3uDqoanb-VtR9-32">
          <mxGeometry relative="1" as="geometry">
            <mxPoint x="-220" y="780" as="targetPoint" />
            <Array as="points">
              <mxPoint x="70" y="580" />
              <mxPoint x="140" y="580" />
              <mxPoint x="140" y="760" />
              <mxPoint x="-220" y="760" />
            </Array>
          </mxGeometry>
        </mxCell>
        <mxCell id="4x68nEd3uDqoanb-VtR9-32" value="dc1-pg-attribute-00 БД&lt;br&gt;SELECT * FROM record_container &lt;br&gt;LEFT JOIN search_record" style="rounded=1;whiteSpace=wrap;html=1;shadow=0;labelBackgroundColor=none;strokeWidth=1;fontFamily=Verdana;fontSize=8;align=center;" vertex="1" parent="77e6c97f196da883-4">
          <mxGeometry x="20" y="510" width="100" height="60" as="geometry" />
        </mxCell>
        <mxCell id="4x68nEd3uDqoanb-VtR9-47" style="edgeStyle=orthogonalEdgeStyle;rounded=0;orthogonalLoop=1;jettySize=auto;html=1;" edge="1" parent="77e6c97f196da883-4" source="4x68nEd3uDqoanb-VtR9-39">
          <mxGeometry relative="1" as="geometry">
            <mxPoint x="-250" y="780" as="targetPoint" />
            <Array as="points">
              <mxPoint x="70" y="660" />
              <mxPoint x="130" y="660" />
              <mxPoint x="130" y="750" />
              <mxPoint x="-250" y="750" />
            </Array>
          </mxGeometry>
        </mxCell>
        <mxCell id="4x68nEd3uDqoanb-VtR9-39" value="dc1-pg-attribute-XX БД&lt;br style=&quot;border-color: var(--border-color);&quot;&gt;SELECT * FROM record_container&lt;br style=&quot;border-color: var(--border-color);&quot;&gt;LEFT JOIN search_record" style="rounded=1;whiteSpace=wrap;html=1;shadow=0;labelBackgroundColor=none;strokeWidth=1;fontFamily=Verdana;fontSize=8;align=center;" vertex="1" parent="77e6c97f196da883-4">
          <mxGeometry x="20" y="590" width="100" height="60" as="geometry" />
        </mxCell>
        <mxCell id="4x68nEd3uDqoanb-VtR9-46" style="edgeStyle=orthogonalEdgeStyle;rounded=0;orthogonalLoop=1;jettySize=auto;html=1;" edge="1" parent="77e6c97f196da883-4" source="4x68nEd3uDqoanb-VtR9-41">
          <mxGeometry relative="1" as="geometry">
            <mxPoint x="-280" y="780" as="targetPoint" />
            <Array as="points">
              <mxPoint x="70" y="740" />
              <mxPoint x="-280" y="740" />
            </Array>
          </mxGeometry>
        </mxCell>
        <mxCell id="4x68nEd3uDqoanb-VtR9-41" value="dc1-pg-attribute-XX БД&lt;br style=&quot;border-color: var(--border-color);&quot;&gt;SELECT * FROM record_containe" style="rounded=1;whiteSpace=wrap;html=1;shadow=0;labelBackgroundColor=none;strokeWidth=1;fontFamily=Verdana;fontSize=8;align=center;" vertex="1" parent="77e6c97f196da883-4">
          <mxGeometry x="20" y="670" width="100" height="60" as="geometry" />
        </mxCell>
        <mxCell id="4x68nEd3uDqoanb-VtR9-2" value="" style="edgeStyle=orthogonalEdgeStyle;rounded=1;html=1;labelBackgroundColor=none;startArrow=none;startFill=0;startSize=5;endArrow=classicThin;endFill=1;endSize=5;jettySize=auto;orthogonalLoop=1;strokeWidth=1;fontFamily=Verdana;fontSize=8;entryX=0.5;entryY=0;entryDx=0;entryDy=0;" edge="1" parent="77e6c97f196da883-1" source="77e6c97f196da883-11" target="4x68nEd3uDqoanb-VtR9-3">
          <mxGeometry relative="1" as="geometry">
            <Array as="points">
              <mxPoint x="240" y="200" />
              <mxPoint x="70" y="200" />
            </Array>
            <mxPoint x="470" y="260" as="sourcePoint" />
            <mxPoint x="410" y="370" as="targetPoint" />
          </mxGeometry>
        </mxCell>
        <mxCell id="4x68nEd3uDqoanb-VtR9-4" value="" style="edgeStyle=orthogonalEdgeStyle;rounded=0;orthogonalLoop=1;jettySize=auto;html=1;" edge="1" parent="77e6c97f196da883-1" source="4x68nEd3uDqoanb-VtR9-1" target="77e6c97f196da883-11">
          <mxGeometry relative="1" as="geometry" />
        </mxCell>
        <mxCell id="4x68nEd3uDqoanb-VtR9-6" value="" style="edgeStyle=orthogonalEdgeStyle;rounded=0;orthogonalLoop=1;jettySize=auto;html=1;" edge="1" parent="77e6c97f196da883-1" source="4x68nEd3uDqoanb-VtR9-3" target="4x68nEd3uDqoanb-VtR9-5">
          <mxGeometry relative="1" as="geometry" />
        </mxCell>
        <mxCell id="4x68nEd3uDqoanb-VtR9-8" value="" style="edgeStyle=orthogonalEdgeStyle;rounded=0;orthogonalLoop=1;jettySize=auto;html=1;entryX=0.5;entryY=0;entryDx=0;entryDy=0;" edge="1" parent="77e6c97f196da883-1" source="4x68nEd3uDqoanb-VtR9-5" target="4x68nEd3uDqoanb-VtR9-7">
          <mxGeometry relative="1" as="geometry">
            <Array as="points">
              <mxPoint x="230" y="280" />
              <mxPoint x="70" y="280" />
            </Array>
          </mxGeometry>
        </mxCell>
        <mxCell id="4x68nEd3uDqoanb-VtR9-10" value="" style="edgeStyle=orthogonalEdgeStyle;rounded=0;orthogonalLoop=1;jettySize=auto;html=1;entryX=0.5;entryY=0;entryDx=0;entryDy=0;entryPerimeter=0;" edge="1" parent="77e6c97f196da883-1" source="4x68nEd3uDqoanb-VtR9-9" target="4x68nEd3uDqoanb-VtR9-13">
          <mxGeometry relative="1" as="geometry">
            <Array as="points">
              <mxPoint x="230" y="360" />
              <mxPoint x="70" y="360" />
            </Array>
          </mxGeometry>
        </mxCell>
        <mxCell id="4x68nEd3uDqoanb-VtR9-11" value="" style="edgeStyle=orthogonalEdgeStyle;rounded=0;orthogonalLoop=1;jettySize=auto;html=1;" edge="1" parent="77e6c97f196da883-1" source="4x68nEd3uDqoanb-VtR9-7" target="4x68nEd3uDqoanb-VtR9-9">
          <mxGeometry relative="1" as="geometry" />
        </mxCell>
        <mxCell id="4x68nEd3uDqoanb-VtR9-17" value="" style="edgeStyle=orthogonalEdgeStyle;rounded=0;orthogonalLoop=1;jettySize=auto;html=1;" edge="1" parent="77e6c97f196da883-1" source="4x68nEd3uDqoanb-VtR9-12" target="4x68nEd3uDqoanb-VtR9-16">
          <mxGeometry relative="1" as="geometry" />
        </mxCell>
        <mxCell id="4x68nEd3uDqoanb-VtR9-21" value="" style="edgeStyle=orthogonalEdgeStyle;rounded=0;orthogonalLoop=1;jettySize=auto;html=1;" edge="1" parent="77e6c97f196da883-1" source="4x68nEd3uDqoanb-VtR9-16" target="4x68nEd3uDqoanb-VtR9-20">
          <mxGeometry relative="1" as="geometry">
            <Array as="points">
              <mxPoint x="230" y="520" />
              <mxPoint x="70" y="520" />
            </Array>
          </mxGeometry>
        </mxCell>
        <mxCell id="4x68nEd3uDqoanb-VtR9-34" value="Федеральные (region = &#39;0&#39;)" style="edgeStyle=orthogonalEdgeStyle;rounded=0;orthogonalLoop=1;jettySize=auto;html=1;entryX=0;entryY=0.5;entryDx=0;entryDy=0;" edge="1" parent="77e6c97f196da883-1" source="4x68nEd3uDqoanb-VtR9-20" target="4x68nEd3uDqoanb-VtR9-32">
          <mxGeometry relative="1" as="geometry" />
        </mxCell>
        <mxCell id="4x68nEd3uDqoanb-VtR9-38" value="" style="edgeStyle=orthogonalEdgeStyle;rounded=0;orthogonalLoop=1;jettySize=auto;html=1;entryX=0;entryY=0.5;entryDx=0;entryDy=0;" edge="1" parent="77e6c97f196da883-1" source="4x68nEd3uDqoanb-VtR9-20" target="4x68nEd3uDqoanb-VtR9-39">
          <mxGeometry relative="1" as="geometry">
            <Array as="points">
              <mxPoint x="70" y="640" />
            </Array>
          </mxGeometry>
        </mxCell>
        <mxCell id="4x68nEd3uDqoanb-VtR9-40" value="Регионы" style="edgeLabel;html=1;align=center;verticalAlign=middle;resizable=0;points=[];" vertex="1" connectable="0" parent="4x68nEd3uDqoanb-VtR9-38">
          <mxGeometry x="0.4354" y="2" relative="1" as="geometry">
            <mxPoint x="-63" as="offset" />
          </mxGeometry>
        </mxCell>
        <mxCell id="4x68nEd3uDqoanb-VtR9-43" value="" style="edgeStyle=orthogonalEdgeStyle;rounded=0;orthogonalLoop=1;jettySize=auto;html=1;entryX=0;entryY=0.5;entryDx=0;entryDy=0;" edge="1" parent="77e6c97f196da883-1" source="4x68nEd3uDqoanb-VtR9-20" target="4x68nEd3uDqoanb-VtR9-41">
          <mxGeometry relative="1" as="geometry">
            <Array as="points">
              <mxPoint x="10" y="560" />
              <mxPoint x="10" y="720" />
            </Array>
          </mxGeometry>
        </mxCell>
        <mxCell id="4x68nEd3uDqoanb-VtR9-45" value="Границы (&quot;borders&quot;)" style="edgeLabel;html=1;align=center;verticalAlign=middle;resizable=0;points=[];" vertex="1" connectable="0" parent="4x68nEd3uDqoanb-VtR9-43">
          <mxGeometry x="0.3917" relative="1" as="geometry">
            <mxPoint x="26" as="offset" />
          </mxGeometry>
        </mxCell>
        <mxCell id="4x68nEd3uDqoanb-VtR9-51" value="" style="edgeStyle=orthogonalEdgeStyle;rounded=0;orthogonalLoop=1;jettySize=auto;html=1;entryX=0.5;entryY=0;entryDx=0;entryDy=0;" edge="1" parent="77e6c97f196da883-1" target="4x68nEd3uDqoanb-VtR9-49">
          <mxGeometry relative="1" as="geometry">
            <mxPoint x="70" y="800" as="sourcePoint" />
          </mxGeometry>
        </mxCell>
        <mxCell id="4x68nEd3uDqoanb-VtR9-55" value="" style="edgeStyle=orthogonalEdgeStyle;rounded=0;orthogonalLoop=1;jettySize=auto;html=1;" edge="1" parent="77e6c97f196da883-1" source="4x68nEd3uDqoanb-VtR9-53" target="4x68nEd3uDqoanb-VtR9-54">
          <mxGeometry relative="1" as="geometry" />
        </mxCell>
        <mxCell id="4x68nEd3uDqoanb-VtR9-60" value="" style="edgeStyle=orthogonalEdgeStyle;rounded=0;orthogonalLoop=1;jettySize=auto;html=1;entryX=0.5;entryY=0;entryDx=0;entryDy=0;" edge="1" parent="77e6c97f196da883-1" source="4x68nEd3uDqoanb-VtR9-54" target="4x68nEd3uDqoanb-VtR9-58">
          <mxGeometry relative="1" as="geometry">
            <Array as="points">
              <mxPoint x="230" y="960" />
              <mxPoint x="70" y="960" />
            </Array>
          </mxGeometry>
        </mxCell>
        <mxCell id="4x68nEd3uDqoanb-VtR9-61" value="" style="edgeStyle=orthogonalEdgeStyle;rounded=0;orthogonalLoop=1;jettySize=auto;html=1;" edge="1" parent="77e6c97f196da883-1" source="4x68nEd3uDqoanb-VtR9-58" target="4x68nEd3uDqoanb-VtR9-59">
          <mxGeometry relative="1" as="geometry" />
        </mxCell>
        <mxCell id="4x68nEd3uDqoanb-VtR9-63" style="edgeStyle=orthogonalEdgeStyle;rounded=0;orthogonalLoop=1;jettySize=auto;html=1;" edge="1" parent="77e6c97f196da883-1" source="4x68nEd3uDqoanb-VtR9-59" target="4x68nEd3uDqoanb-VtR9-62">
          <mxGeometry relative="1" as="geometry">
            <Array as="points">
              <mxPoint x="230" y="1040" />
              <mxPoint x="70" y="1040" />
            </Array>
          </mxGeometry>
        </mxCell>
        <mxCell id="77e6c97f196da883-5" value="&lt;font style=&quot;font-size: 10px;&quot;&gt;Детальный слой&amp;nbsp;данных КСАО&lt;/font&gt;" style="swimlane;html=1;startSize=20;" parent="77e6c97f196da883-1" vertex="1">
          <mxGeometry x="480" y="20" width="160" height="1520" as="geometry">
            <mxRectangle x="480" y="20" width="70" height="1600" as="alternateBounds" />
          </mxGeometry>
        </mxCell>
        <mxCell id="4x68nEd3uDqoanb-VtR9-91" value="" style="edgeStyle=orthogonalEdgeStyle;rounded=0;orthogonalLoop=1;jettySize=auto;html=1;entryX=0.5;entryY=0;entryDx=0;entryDy=0;exitX=0.5;exitY=1;exitDx=0;exitDy=0;" edge="1" parent="77e6c97f196da883-5" source="4x68nEd3uDqoanb-VtR9-74" target="4x68nEd3uDqoanb-VtR9-88">
          <mxGeometry relative="1" as="geometry">
            <Array as="points">
              <mxPoint x="70" y="1310" />
              <mxPoint x="70" y="1310" />
            </Array>
          </mxGeometry>
        </mxCell>
        <mxCell id="4x68nEd3uDqoanb-VtR9-74" value="INSERT INTO&lt;br&gt;journal.file" style="rounded=1;whiteSpace=wrap;html=1;shadow=0;labelBackgroundColor=none;strokeWidth=1;fontFamily=Verdana;fontSize=8;align=center;" vertex="1" parent="77e6c97f196da883-5">
          <mxGeometry x="20" y="1230" width="100" height="60" as="geometry" />
        </mxCell>
        <mxCell id="4x68nEd3uDqoanb-VtR9-89" value="" style="edgeStyle=orthogonalEdgeStyle;rounded=0;orthogonalLoop=1;jettySize=auto;html=1;entryX=0.5;entryY=0;entryDx=0;entryDy=0;" edge="1" parent="77e6c97f196da883-5" source="4x68nEd3uDqoanb-VtR9-87" target="4x68nEd3uDqoanb-VtR9-74">
          <mxGeometry relative="1" as="geometry" />
        </mxCell>
        <mxCell id="4x68nEd3uDqoanb-VtR9-87" value="Начало транзакции" style="rounded=1;whiteSpace=wrap;html=1;shadow=0;labelBackgroundColor=none;strokeWidth=1;fontFamily=Verdana;fontSize=8;align=center;fillColor=#bac8d3;strokeColor=#23445d;" vertex="1" parent="77e6c97f196da883-5">
          <mxGeometry x="20" y="1190" width="100" height="20" as="geometry" />
        </mxCell>
        <mxCell id="4x68nEd3uDqoanb-VtR9-88" value="Конец транзакции" style="rounded=1;whiteSpace=wrap;html=1;shadow=0;labelBackgroundColor=none;strokeWidth=1;fontFamily=Verdana;fontSize=8;align=center;fillColor=#bac8d3;strokeColor=#23445d;" vertex="1" parent="77e6c97f196da883-5">
          <mxGeometry x="20" y="1310" width="100" height="20" as="geometry" />
        </mxCell>
        <mxCell id="4x68nEd3uDqoanb-VtR9-81" value="" style="edgeStyle=orthogonalEdgeStyle;rounded=0;orthogonalLoop=1;jettySize=auto;html=1;exitX=0.482;exitY=1.077;exitDx=0;exitDy=0;exitPerimeter=0;entryX=0.5;entryY=0;entryDx=0;entryDy=0;" edge="1" parent="77e6c97f196da883-1" source="4x68nEd3uDqoanb-VtR9-64" target="4x68nEd3uDqoanb-VtR9-87">
          <mxGeometry relative="1" as="geometry">
            <mxPoint x="70" y="1290" as="targetPoint" />
            <Array as="points">
              <mxPoint x="68" y="1200" />
              <mxPoint x="550" y="1200" />
            </Array>
          </mxGeometry>
        </mxCell>
        <mxCell id="4x68nEd3uDqoanb-VtR9-92" style="edgeStyle=orthogonalEdgeStyle;rounded=0;orthogonalLoop=1;jettySize=auto;html=1;" edge="1" parent="77e6c97f196da883-1" source="4x68nEd3uDqoanb-VtR9-88" target="4x68nEd3uDqoanb-VtR9-75">
          <mxGeometry relative="1" as="geometry">
            <Array as="points">
              <mxPoint x="550" y="1360" />
              <mxPoint x="70" y="1360" />
            </Array>
          </mxGeometry>
        </mxCell>
      </root>
    </mxGraphModel>
  </diagram>
</mxfile>
